<?xml version="1.0" standalone="yes"?>
<svg width="509" height="512">
<path style="fill:#d4d4d4; stroke:none;" d="M0 0L0 126L2 126L2 2L201 2L201 0L0 0z"/>
<path style="fill:#d9d9d9; stroke:none;" d="M201 0L201 2L507 3L508 27C511.109 19.5911 509 8.02454 509 0L201 0z"/>
<path style="fill:#c9aaa9; stroke:none;" d="M2 2L2 327C4.59909 320.806 3 311.686 3 305L3 256L3 85L3 31C3 25.2637 0.90914 14.3317 4.02778 9.34335C5.67058 6.71564 9.12559 5.75391 12 5.30402C19.4138 4.14368 27.5072 5 35 5L126 5L507 5C502.531 3.12485 496.809 4 492 4L461 4C426.285 4 391.724 3 357 3C238.618 3 120.392 2 2 2z"/>
<path style="fill:#ccb5b4; stroke:none;" d="M192 2C195.959 3.6611 200.74 3 205 3L230 3L318 3C314.041 1.3389 309.26 2 305 2L280 2L192 2z"/>
<path style="fill:#d0c1c0; stroke:none;" d="M318 2C326.367 5.51083 339.924 3 349 3C340.633 -0.510864 327.076 2 318 2z"/>
<path style="fill:#d4cccc; stroke:none;" d="M349 2C352.699 3.552 357.017 3 361 3L381 3C377.301 1.44797 372.983 2 369 2L349 2z"/>
<path style="fill:#cdb6b5; stroke:none;" d="M412 3C415.699 4.552 420.017 4 424 4L444 4C440.301 2.44794 435.983 3 432 3L412 3z"/>
<path style="fill:#d1c2c1; stroke:none;" d="M444 3C452.367 6.51083 465.924 4 475 4C466.633 0.489166 453.076 3 444 3z"/>
<path style="fill:#d6cece; stroke:none;" d="M475 3C478.699 4.552 483.017 4 487 4L507 4C503.301 2.44794 498.983 3 495 3L475 3z"/>
<path style="fill:#b68f90; stroke:none;" d="M2 507L105 507L105 503L241 503C234.558 504.908 227.656 504.633 221 505.09C211.246 505.758 201.806 506.774 192 507.015C166.62 507.636 141.373 507 116 507L116 510L503 510L503 468C503 462.526 501.573 455.992 507 453L507 6C381.554 6 256.325 5 131 5L38 5C30.3404 5 22.6572 4.82361 15 5.01465C11.6402 5.09848 7.12921 5.30829 4.60339 7.87885C2.3805 10.1411 3.0013 14.1147 3 17L3 40L3 134C3 258.456 2 382.671 2 507z"/>
<path style="fill:#bf9c9c; stroke:none;" d="M180 5C187.159 8.00415 198.256 6 206 6L265 6C257.841 2.99585 246.744 5 239 5L180 5M315 5C320.216 7.1889 327.381 6 333 6L372 6L507 6C501.784 3.8111 494.619 5 489 5L450 5L315 5z"/>
<path style="fill:#9b6871; stroke:none;" d="M20 6C24.5994 7.92996 30.0802 6.70157 35 7.16977C46.5724 8.27106 58.3637 9 70 9C106.707 9 143.348 8 180 8L180 6L20 6z"/>
<path style="fill:#a06c72; stroke:none;" d="M269 6C273.333 8.96445 279.846 8.9744 285 8.99924C295.053 9.0477 305.001 8.02756 315 8L315 6L269 6z"/>
<path style="fill:#af8588; stroke:none;" d="M82 9C86.2151 10.7687 91.4645 10 96 10L125 10C120.785 8.23126 115.536 9 111 9L82 9z"/>
<path style="fill:#dfc3cb; stroke:none;" d="M507 11L507 176L509 176L509 62C509 49.3093 509.371 36.6235 508.17 24C507.758 19.6677 508.7 15.0509 507 11z"/>
<path style="fill:#9d744b; stroke:none;" d="M15 16C19.2152 17.7687 24.4645 17 29 17L57 17L155 17L496 17C491.785 15.2313 486.535 16 482 16L454 16L356 16L15 16z"/>
<path style="fill:#ad8679; stroke:none;" d="M496 16L496 108C498.497 102.049 497 93.4202 497 87L497 40C497 32.7845 498.802 22.6777 496 16z"/>
<path style="fill:#956b34; stroke:none;" d="M15 17C15 62.9717 15.9699 109.114 13.9606 155C12.8102 181.272 10.3166 207.707 10.0039 234C8.96462 321.364 12 408.7 12 496C71.3594 496 130.687 498.291 190 498.996C291.033 500.198 392.019 498 493 498C493 450.037 496.425 401.977 496.996 354C497.575 305.33 496.582 256.586 496.004 208C495.247 144.354 496 80.6514 496 17L15 17z"/>
<path style="fill:#b18588; stroke:none;" d="M383 98C374.333 89.5171 363.538 83.35 354 94L358 102C344.023 102 331.653 96.1906 318 95C322.03 108.962 333.605 122.68 342.424 134C346.433 139.145 351.334 144.017 354 150C339.335 151.46 323.381 158.717 311 166.425C307.236 168.769 300.304 171.901 298.643 176.3C296.649 181.578 301.29 191.342 301.83 197C303.51 214.582 293.978 241.338 272 237.667C254.016 234.662 262.358 214.714 260.816 202C259.779 193.455 254.556 184.777 249.522 178C245.357 172.393 240.419 166.023 234 162.895C225.512 158.759 213.583 157.984 206.418 151.351C201.73 147.011 199.479 138.411 195.921 133C189.169 122.729 180.394 113.342 171 105.439C166.889 101.98 160.638 95.8383 155 95.4105C149.687 95.0074 143.596 100.501 139 102.741C130 107.127 119.82 110.629 110 112.628C101.945 114.268 92.7685 114.071 85 116.695C76.1248 119.694 67.5295 127.552 61 134.004C57.4342 137.527 50.3612 142.584 49.9043 148C49.5078 152.7 53.8888 158.689 55.5394 163C58.2314 170.031 59.5089 177.578 60.5718 185C62.5006 198.47 56.5957 209.963 56 223C65.1838 225.181 73.0724 230.926 80 237.171C82.9695 239.847 85.7107 244.084 89.2855 245.933C92.6008 247.648 98.3289 246.006 102 246C112.812 245.983 122.945 247.272 131.999 253.789C135.001 255.949 139.02 259.203 139.917 263C140.676 266.211 138.189 269.321 136.781 272C133.352 278.524 130.336 285.161 127.6 292C119.874 311.315 115.014 333.12 115 354C110.913 354 105.88 353.241 102.004 354.742C92.9174 358.263 95.1124 368.451 95.8302 376C96.6854 384.992 94.3484 395.233 87 401C85.8532 397.028 84.0399 392.287 80.5363 389.762C78.0866 387.996 75.0719 388.859 74.6466 392.059C73.875 397.865 80.1546 405.514 81.892 411C82.8707 414.09 83.0771 418.078 79.7731 419.886C77.9058 420.907 75.0631 420.626 73 421C74.9303 429.203 71.8745 437.208 63 439C64.6441 446.944 66.7839 458.317 74.0934 463.097C78.0706 465.698 82.5191 465.048 87 465.004C93.1024 464.943 98.945 465.522 105 466C103.521 466.986 103.797 467 102 467C107.169 468.854 115.355 467 121 467L152 467C157.038 467 163.091 467.905 168 466.682C174.003 465.187 177.521 459.201 184 458.213C188.029 457.599 192.262 458.072 195.996 459.684C198.655 460.831 201.22 463.274 204.17 463.538C208.37 463.913 213.843 461.817 218 460.999C229.111 458.813 240.164 456.33 251 453.025C261.799 449.731 272.587 446.737 283 442.28C288.61 439.879 292.942 438.502 294 432C285.059 429.091 276.123 426.168 267 423.873C263.043 422.878 256.645 422.328 253.361 419.836C250.221 417.453 253.105 412.737 254.281 410C258.074 401.167 262.699 391.728 268.75 384.185C272.721 379.235 279.432 377.241 285 374.691C297.931 368.771 312.744 361.166 327 359.304C332.184 358.627 336.829 361.464 342 360.671C351.299 359.243 358.27 353.881 356 344C359.755 345.965 363.561 348.388 368 347.836C376.663 346.761 386.629 334.821 383.258 326.001C379.562 316.332 363.29 311.372 354 310C353.569 299.974 353.215 290.87 356.04 281C358.752 271.527 364.565 262.968 365 253C364.317 254.506 364.174 255.315 364 257C353.727 253.998 353.695 263.106 349.637 269.996C346.876 274.683 342.386 278.233 337 275.343C335.221 274.389 333.576 273.056 332.091 271.701C329.864 269.668 327.983 267.263 326 265C332.179 264.995 335.77 264.993 336 258C329.326 257.497 326.355 253.477 326 247L336 247C333.782 242.257 329.885 239.394 326 236C333.658 234.578 340.495 234.712 346.895 239.789C350.834 242.913 351.926 247.498 357 249C357 244.842 358.499 237.932 356.017 234.39C353.973 231.473 349.903 230.9 348.024 227.787C345.817 224.131 346.219 218.964 344.355 215.001C338.681 202.938 327.364 204 316 204C315.151 197.315 312.966 190.635 315.249 184C318.45 174.7 327.891 169.082 337 166.899C340.769 165.996 345.439 165.208 348.826 167.603C354.177 171.388 357.747 178.98 361.921 184C366.73 189.784 373.283 194.754 377.412 201C379.417 204.033 380.097 207.808 381.877 211C387.461 221.019 393.22 231.097 399 241C405.887 233.657 400.777 216.442 413.004 212.647C419.794 210.54 423.969 222.33 429.606 219.824C433.183 218.234 433.494 212.057 435.278 209.04C439.07 202.626 446.12 201.058 453 201C450.89 196.972 447.264 191.78 447.836 187C448.226 183.738 450.757 180.867 452.19 178C455.169 172.036 457.959 164.827 456.852 158.04C456.138 153.662 451.952 151.841 449.108 148.907C445.168 144.84 443.475 139.623 444.189 134C445.544 123.336 455.752 112.458 452.681 101.059C450.806 94.0969 441.043 97.2691 437 100C435.743 90.0509 436.936 80.3627 440.876 71C443.234 65.3948 448.668 58.1781 444.258 52.1481C441.048 47.7597 434.734 48.7207 431.318 52.3441C426.29 57.6776 429.538 65.6224 421.985 70.243C416.225 73.7665 407.475 69.6623 401 71.4337C391.441 74.0486 384.699 89.089 383 98z"/>
<path style="fill:#9c7149; stroke:none;" d="M428 55L428 63C429.161 60.2301 429.161 57.7698 428 55z"/>
<path style="fill:#aa7e73; stroke:none;" d="M403 70C406.163 71.3274 409.586 70.9996 413 71C409.837 69.6726 406.414 70.0004 403 70z"/>
<path style="fill:#ad8679; stroke:none;" d="M14 85L14 102C15.8826 97.5135 15.8826 89.4865 14 85z"/>
<path style="fill:#cfb5af; stroke:none;" d="M427.667 86.3333C427.222 86.7777 428.278 86.7222 428.333 86.6667C428.778 86.2222 427.722 86.2779 427.667 86.3333z"/>
<path style="fill:#f6f3e2; stroke:none;" d="M362 130C367.884 137.297 375.247 142.659 380 151C371.071 153.662 372.241 160.132 373.808 168C376.227 180.147 382.721 187.762 392.961 194.319C395.178 195.738 397.362 198.166 400.046 198.627C408.499 200.079 404.535 184.429 408.514 180.563C411.124 178.027 415.743 177.547 419 176.124C424.934 173.533 430.496 169.509 434.03 164C439.605 155.311 439.206 142.731 437.116 133C436.514 130.2 436.296 126.791 434.825 124.289C432.016 119.516 426.214 117.693 424.573 111.999C422.153 103.604 425.833 94.9425 428 87C421.087 89.9225 415.199 95.4452 409 99.6559C403.621 103.31 397.001 106.234 392.303 110.76C389.417 113.54 388.94 117.802 386.442 120.907C380.79 127.933 370.517 129.977 362 130z"/>
<path style="fill:#aa7e73; stroke:none;" d="M436 87L436 97C437.346 93.7929 437.346 90.2071 436 87z"/>
<path style="fill:#d3bcb5; stroke:none;" d="M419 92L420 93L419 92z"/>
<path style="fill:#a17658; stroke:none;" d="M317 96L320 95C318.222 94.0445 317.979 94.2338 317 96z"/>
<path style="fill:#cfb5af; stroke:none;" d="M425 94L425 97C425.696 95.4463 425.696 95.5537 425 94z"/>
<path style="fill:#a3785e; stroke:none;" d="M443 96C445.332 96.9845 447.457 96.9813 450 97C447.668 96.0154 445.543 96.0187 443 96z"/>
<path style="fill:#d3bcb5; stroke:none;" d="M412 97L413 98L412 97M424 99L424 109C425.346 105.793 425.346 102.207 424 99z"/>
<path style="fill:#a3785e; stroke:none;" d="M357 100C353.343 101.081 349.801 101 346 101C347.957 102.128 358.371 103.322 357 100z"/>
<path style="fill:#a57d62; stroke:none;" d="M14 102L14 115C15.5909 111.209 15.5909 105.791 14 102z"/>
<path style="fill:#a47963; stroke:none;" d="M452 108L452 111C452.696 109.446 452.696 109.554 452 108z"/>
<path style="fill:#a57d62; stroke:none;" d="M496 108L496 169C497.875 164.531 497 158.809 497 154L497 124C497 118.92 497.981 112.72 496 108z"/>
<path style="fill:#e4d7cb; stroke:none;" d="M424 109L424 113C424.71 111.24 424.71 110.76 424 109M157 111C158.506 111.683 159.315 111.826 161 112C159.494 111.317 158.685 111.174 157 111z"/>
<path style="fill:#caaea9; stroke:none;" d="M161.667 111.333C161.222 111.778 162.278 111.722 162.333 111.667C162.778 111.222 161.722 111.278 161.667 111.333z"/>
<path style="fill:#a47963; stroke:none;" d="M110.667 112.333C110.222 112.778 111.278 112.722 111.333 112.667C111.778 112.222 110.722 112.278 110.667 112.333z"/>
<path style="fill:#f6f3e2; stroke:none;" d="M123 170C126.616 165.392 131.974 163.018 137 160.15C144.367 155.948 151.714 151.74 159 147.396C164.963 143.84 171.291 139.755 173.992 133C178.577 121.529 168.023 111.208 157 112.093C152.487 112.456 148.341 114.39 144 115.522C127.644 119.787 112.493 126.963 98 135.604C93.3368 138.384 82.531 143.258 81.4082 149.093C80.4604 154.019 84.1528 159.105 86.5764 163C93.0888 173.467 100.496 183.385 108.2 193C122.875 211.316 139.189 227.618 157 242.869C162.131 247.262 170.888 257.121 178 257.396C183.883 257.623 190.693 253.347 196 251.201C209.167 245.875 221.958 239.09 234 231.575C239.028 228.437 245.887 224.703 249.4 219.826C258.072 207.789 245.398 189.604 233 186.738C228.217 185.633 222.438 188.113 218 189.692C206.207 193.889 194.814 199.145 184 205.424C180.07 207.706 173.674 213.861 169.001 213.694C164.029 213.518 159.186 205.228 155.996 202C148.861 194.779 142.177 187.177 135 180C131.258 176.258 127.832 172.253 123 170z"/>
<path style="fill:#c2a09e; stroke:none;" d="M389 112L389 116C389.71 114.24 389.71 113.76 389 112z"/>
<path style="fill:#d3bcb5; stroke:none;" d="M149.667 113.333C149.222 113.778 150.278 113.722 150.333 113.667C150.778 113.222 149.722 113.278 149.667 113.333z"/>
<path style="fill:#dbc8c5; stroke:none;" d="M337 113C347.593 129.014 363.87 141.055 380 151C376.599 142.158 368.941 136.064 362 130C372.205 129.993 386.24 127.575 389 116C382.918 118.521 377.684 122.569 371 123.674C358.578 125.729 347.972 116.993 337 113z"/>
<path style="fill:#c2a0a1; stroke:none;" d="M432 113C434.332 113.985 436.457 113.981 439 114C436.668 113.015 434.543 113.019 432 113z"/>
<path style="fill:#e0d0c5; stroke:none;" d="M146.667 114.333C146.222 114.778 147.278 114.722 147.333 114.667C147.778 114.222 146.722 114.278 146.667 114.333z"/>
<path style="fill:#d3bbbb; stroke:none;" d="M425 115C428.177 119.152 432.553 122.061 436 126C438.948 124.454 444.797 117.214 439.667 114.603C435.67 112.569 429.194 114.47 425 115z"/>
<path style="fill:#9d744b; stroke:none;" d="M14 115L14 125C15.3457 121.793 15.3457 118.207 14 115z"/>
<path style="fill:#e4d7cb; stroke:none;" d="M143.667 115.333C143.222 115.778 144.278 115.722 144.333 115.667C144.778 115.222 143.722 115.278 143.667 115.333z"/>
<path style="fill:#e0d0c5; stroke:none;" d="M128.667 120.333C128.222 120.778 129.278 120.722 129.333 120.667C129.778 120.222 128.722 120.278 128.667 120.333z"/>
<path style="fill:#c3a2a2; stroke:none;" d="M358.667 122.333C358.222 122.778 359.278 122.722 359.333 122.667C359.778 122.222 358.722 122.278 358.667 122.333z"/>
<path style="fill:#c6a6a6; stroke:none;" d="M362 123C365.432 124.44 369.3 124 373 124C369.568 122.56 365.7 123 362 123z"/>
<path style="fill:#d9bcb3; stroke:none;" d="M0 126L0 432L2 432L2 126L0 126z"/>
<path style="fill:#c2a09e; stroke:none;" d="M175 126L175 130C175.71 128.24 175.71 127.76 175 126z"/>
<path style="fill:#e0d0c5; stroke:none;" d="M436.333 129.667C436.278 129.722 436.222 130.778 436.667 130.333C436.722 130.278 436.778 129.222 436.333 129.667z"/>
<path style="fill:#d3bcb5; stroke:none;" d="M105 131L106 132L105 131z"/>
<path style="fill:#dcc9c0; stroke:none;" d="M437.333 133.667C437.278 133.722 437.222 134.778 437.667 134.333C437.722 134.278 437.778 133.222 437.333 133.667z"/>
<path style="fill:#ad8679; stroke:none;" d="M13 135L13 144C14.2561 141.006 14.2561 137.994 13 135z"/>
<path style="fill:#d3bcb5; stroke:none;" d="M98 135L99 136L98 135z"/>
<path style="fill:#d7c2ba; stroke:none;" d="M438 137L438 141C438.71 139.24 438.71 138.759 438 137z"/>
<path style="fill:#caaea9; stroke:none;" d="M169.333 139.667C169.278 139.722 169.222 140.778 169.667 140.333C169.722 140.278 169.778 139.222 169.333 139.667z"/>
<path style="fill:#dcccc9; stroke:none;" d="M137 175C156.679 174.101 172.787 158.321 180 141C168.424 144.003 156.757 155.462 147 162.28C141.662 166.01 137.229 167.997 137 175z"/>
<path style="fill:#e4d7cb; stroke:none;" d="M438 141L438 145C438.71 143.24 438.71 142.759 438 141z"/>
<path style="fill:#d3bcb5; stroke:none;" d="M86 143L87 144L86 143z"/>
<path style="fill:#a57d62; stroke:none;" d="M13 144L13 152C14.1614 149.23 14.1614 146.77 13 144z"/>
<path style="fill:#d3bcb5; stroke:none;" d="M438 147L438 153C438.951 150.715 438.951 149.285 438 147z"/>
<path style="fill:#e0c5c5; stroke:none;" d="M63 148C63.0005 152.436 63.1888 156.631 64 161L71 161C70.2694 155.534 67.0799 151.566 63 148z"/>
<path style="fill:#a47963; stroke:none;" d="M204.333 148.667C204.278 148.722 204.222 149.778 204.667 149.333C204.722 149.278 204.778 148.222 204.333 148.667M346.667 151.333C346.222 151.778 347.278 151.722 347.333 151.667C347.778 151.222 346.722 151.278 346.667 151.333z"/>
<path style="fill:#9d744b; stroke:none;" d="M13 152L13 160C14.1614 157.23 14.1614 154.77 13 152z"/>
<path style="fill:#d3bcb5; stroke:none;" d="M81.3333 152.667C81.2777 152.722 81.2223 153.778 81.6667 153.333C81.7222 153.278 81.7778 152.222 81.3333 152.667M375 152L376 153L375 152M372 154L373 155L372 154z"/>
<path style="fill:#cfb5af; stroke:none;" d="M437.333 155.667C437.278 155.722 437.222 156.778 437.667 156.333C437.722 156.278 437.778 155.222 437.333 155.667z"/>
<path style="fill:#a3785e; stroke:none;" d="M457 155L457 160C457.83 157.969 457.83 157.03 457 155z"/>
<path style="fill:#cba9aa; stroke:none;" d="M63.3333 158.667C63.2778 158.722 63.2223 159.778 63.6667 159.333C63.7223 159.278 63.7778 158.222 63.3333 158.667z"/>
<path style="fill:#d3bcb5; stroke:none;" d="M372 158L372 163C372.83 160.97 372.83 160.031 372 158M84 159L85 160L84 159M132 162L133 163L132 162z"/>
<path style="fill:#dbcbc7; stroke:none;" d="M200 165C199.877 170.925 198.45 175.188 195 180C196.64 181.167 198.202 182.307 200.025 183.184C212.83 189.35 211 173.993 211 166L209 166C208.811 170.405 208.054 174.721 207 179C204.469 174.923 203.303 170.591 202 166L208 166C205.387 164.902 202.835 165.007 200 165z"/>
<path style="fill:#faf3ec; stroke:none;" d="M202 166C202.93 170.492 204.142 174.802 206 179C208.794 175.312 208 170.481 208 166L202 166z"/>
<path style="fill:#eadfd9; stroke:none;" d="M208 166L208 172C208.951 169.715 208.951 168.285 208 166z"/>
<path style="fill:#d7c2ba; stroke:none;" d="M373 166L373 169C373.696 167.446 373.696 167.554 373 166z"/>
<path style="fill:#a57d62; stroke:none;" d="M12 168L12 182C13.6667 178.028 13.6668 171.972 12 168z"/>
<path style="fill:#dcc9c0; stroke:none;" d="M123.333 168.667C123.278 168.722 123.222 169.778 123.667 169.333C123.722 169.278 123.778 168.222 123.333 168.667z"/>
<path style="fill:#9d744b; stroke:none;" d="M496 169L496 215C497.552 211.301 497 206.983 497 203L497 182C497 177.74 497.661 172.959 496 169z"/>
<path style="fill:#d3bcb5; stroke:none;" d="M92 171L93 172L92 171z"/>
<path style="fill:#c6a8a7; stroke:none;" d="M211 171L211 179C212.161 176.23 212.161 173.77 211 171z"/>
<path style="fill:#a3785e; stroke:none;" d="M58.3333 172.667C58.2778 172.722 58.2222 173.778 58.6667 173.333C58.7223 173.278 58.7778 172.222 58.3333 172.667z"/>
<path style="fill:#d7d7d7; stroke:none;" d="M507 176L507 424C507 445.203 509.272 466.966 507.169 488C506.61 493.596 506.731 505.239 502.411 509.397C499.75 511.958 494.362 511 491 511L463 511L348 511C352.72 512.981 358.92 512 364 512L396 512L509 512L509 176L507 176z"/>
<path style="fill:#caaea9; stroke:none;" d="M408.667 179.333C408.222 179.778 409.278 179.722 409.333 179.667C409.778 179.222 408.722 179.278 408.667 179.333z"/>
<path style="fill:#c39f9f; stroke:none;" d="M407 180L407 194C408.667 190.028 408.667 183.972 407 180z"/>
<path style="fill:#d6bab6; stroke:none;" d="M406 183C406 190.001 406.876 198.315 398 199C407.296 211.168 408.593 189.18 406 183z"/>
<path style="fill:#a3785e; stroke:none;" d="M60 184L60 201C61.8826 196.514 61.8826 188.486 60 184z"/>
<path style="fill:#ccb1b0; stroke:none;" d="M80 185C80.5451 186.635 80.3648 186.455 82 187L82 185L80 185z"/>
<path style="fill:#caaea9; stroke:none;" d="M232 185C232.545 186.635 232.365 186.455 234 187L234 185L232 185z"/>
<path style="fill:#e2d4d0; stroke:none;" d="M80 186C74.9413 191.101 70.2387 195.49 70 203C74.7338 200.41 81.4896 191.609 80 186z"/>
<path style="fill:#e4d7cb; stroke:none;" d="M228.667 186.333C228.222 186.778 229.278 186.722 229.333 186.667C229.778 186.222 228.722 186.278 228.667 186.333z"/>
<path style="fill:#a3785e; stroke:none;" d="M314 186L314 195C315.256 192.006 315.256 188.994 314 186z"/>
<path style="fill:#d3bcb5; stroke:none;" d="M106 190L107 191L106 190M145 191L146 192L145 191M388 191L389 192L388 191z"/>
<path style="fill:#a57d62; stroke:none;" d="M11 196L11 207C12.4309 203.59 12.4309 199.41 11 196z"/>
<path style="fill:#9c7149; stroke:none;" d="M453 200C450.271 200.81 447.85 200.979 445 201C446.737 202.001 454.347 203.262 453 200z"/>
<path style="fill:#ceb5b2; stroke:none;" d="M100.667 205.333C100.222 205.778 101.278 205.722 101.333 205.667C101.778 205.222 100.722 205.278 100.667 205.333z"/>
<path style="fill:#e4d7cb; stroke:none;" d="M251 205L251 208C251.696 206.446 251.696 206.554 251 205z"/>
<path style="fill:#e6dbd3; stroke:none;" d="M101 206C103.676 217.377 94.9458 221.714 85 223C85.2741 226.14 85.8466 229.11 87.189 231.999C96.5204 252.08 128.154 224.959 109.985 210.529C107.248 208.356 104.317 206.976 101 206z"/>
<path style="fill:#a3785e; stroke:none;" d="M261 207L261 218C262.431 214.59 262.431 210.41 261 207z"/>
<path style="fill:#a47963; stroke:none;" d="M434.333 209.667C434.278 209.722 434.222 210.778 434.667 210.333C434.722 210.278 434.778 209.222 434.333 209.667z"/>
<path style="fill:#d3bcb5; stroke:none;" d="M251 213L251 217C251.71 215.24 251.71 214.759 251 213z"/>
<path style="fill:#a57d62; stroke:none;" d="M10 218L10 228C11.3457 224.793 11.3457 221.207 10 218z"/>
<path style="fill:#cbb0ad; stroke:none;" d="M116 219L116 223C116.71 221.241 116.71 220.759 116 219z"/>
<path style="fill:#c8aaa8; stroke:none;" d="M91 221C92.2484 221.685 92.5484 221.749 94 222C92.7516 221.315 92.4516 221.251 91 221z"/>
<path style="fill:#d8c5c0; stroke:none;" d="M84 225C85.731 223.994 87.053 223.454 89 223C86.3872 221.502 84.6455 221.988 84 225z"/>
<path style="fill:#d3bcb5; stroke:none;" d="M246 222L247 223L246 222z"/>
<path style="fill:#ece3d7; stroke:none;" d="M312 279C313.038 271.289 315.168 263.737 316.271 256C316.975 251.058 317.569 245.979 317.91 241C318.19 236.925 319.183 229.844 316.972 226.228C312.61 219.094 304.029 225.581 300.785 230.004C298.571 233.023 296.59 236.489 295.272 240C294.041 243.277 294.006 246.547 294 250C293.986 258.432 292.004 272.653 300.108 278.258C303.703 280.744 308.032 279.736 312 279z"/>
<path style="fill:#d3bcb5; stroke:none;" d="M242 225L243 226L242 225z"/>
<path style="fill:#ceb4af; stroke:none;" d="M318 228L318 236C319.161 233.23 319.161 230.77 318 228z"/>
<path style="fill:#d7bebe; stroke:none;" d="M128 231C129.347 238.556 134.062 245.832 140.004 250.657C142.929 253.032 146.959 254.099 149.297 257.144C153.956 263.209 152.55 272.028 152 279C157.172 273.878 155.097 267.152 159 262C157.153 257 152.77 254.8 149.375 250.91C142.79 243.365 137.832 234.803 128 231z"/>
<path style="fill:#d3bcb5; stroke:none;" d="M230 233L231 234L230 233z"/>
<path style="fill:#efebe2; stroke:none;" d="M326 236C329.216 239.989 334.569 243.045 336.397 248C339.353 256.016 335.391 267.545 347 270C349.64 263.144 350.003 257.294 350 250C349.999 247.245 350.469 243.796 348.972 241.329C344.783 234.422 332.768 234.389 326 236z"/>
<path style="fill:#d7c4c0; stroke:none;" d="M337 235C338.248 235.685 338.548 235.749 340 236C338.752 235.315 338.452 235.251 337 235z"/>
<path style="fill:#a47963; stroke:none;" d="M283.667 236.333C283.222 236.778 284.278 236.722 284.333 236.667C284.778 236.222 283.722 236.278 283.667 236.333z"/>
<path style="fill:#bf9c9b; stroke:none;" d="M318 236L318 241C318.83 238.969 318.83 238.03 318 236z"/>
<path style="fill:#a3785e; stroke:none;" d="M270 237C272.89 238.213 275.874 237.998 279 238C276.11 236.787 273.126 237.002 270 237z"/>
<path style="fill:#bb9596; stroke:none;" d="M357 237L357 247C358.366 243.773 358.763 240.05 357 237z"/>
<path style="fill:#ad8679; stroke:none;" d="M9 238L9 314C11.1889 308.784 10 301.619 10 296L10 258C10 251.846 11.3949 243.707 9 238z"/>
<path style="fill:#d3bcb5; stroke:none;" d="M153 239L154 240L153 239z"/>
<path style="fill:#d9c6c2; stroke:none;" d="M358 239C357.969 242.735 357.467 246.305 357 250C354.864 248.451 353.549 247.136 352 245C350.101 249.514 350.481 255.143 349.819 260C349.348 263.447 347.911 266.661 347 270C341.424 268.013 339.186 263.222 337 258C334.524 263.311 333.404 265.792 327 266C328.442 268.475 329.913 270.623 332.094 272.533C333.563 273.819 335.212 275.052 337 275.86C353.403 283.268 348.978 252.009 364 257C363.945 250.48 362.76 243.751 358 239z"/>
<path style="fill:#bf9c9b; stroke:none;" d="M293 243L293 249C293.951 246.715 293.951 245.285 293 243z"/>
<path style="fill:#e4d8d2; stroke:none;" d="M350 243L350 254C351.431 250.59 351.431 246.41 350 243z"/>
<path style="fill:#d2bbb9; stroke:none;" d="M251 244L251 251C252.059 248.466 252.059 246.534 251 244z"/>
<path style="fill:#ddceca; stroke:none;" d="M252 244C252 248.701 250.903 254.881 255 258L255 248L276 251C271.84 244.922 258.864 244.142 252 244z"/>
<path style="fill:#c4a4a4; stroke:none;" d="M258 244C259.248 244.685 259.548 244.749 261 245C259.752 244.315 259.452 244.251 258 244z"/>
<path style="fill:#ceb4af; stroke:none;" d="M317 244L317 250C317.951 247.715 317.951 246.285 317 244z"/>
<path style="fill:#c7a9a9; stroke:none;" d="M263 245C264.248 245.685 264.548 245.749 266 246C264.752 245.315 264.452 245.251 263 245z"/>
<path style="fill:#a47963; stroke:none;" d="M93 246C94.5061 246.683 95.3148 246.826 97 247C95.494 246.317 94.6852 246.174 93 246z"/>
<path style="fill:#e5d7d4; stroke:none;" d="M336 246L336 258C337.512 254.396 337.512 249.604 336 246z"/>
<path style="fill:#ad8679; stroke:none;" d="M497 246L497 339C499.802 332.322 498 322.216 498 315L498 268C498 261.314 499.599 252.194 497 246z"/>
<path style="fill:#c4a4a4; stroke:none;" d="M271.667 247.333C271.222 247.778 272.278 247.722 272.333 247.667C272.778 247.222 271.722 247.278 271.667 247.333z"/>
<path style="fill:#d1b4b6; stroke:none;" d="M326 247C329.163 248.327 332.586 248 336 248C332.837 246.673 329.414 247 326 247z"/>
<path style="fill:#f1e8dc; stroke:none;" d="M255 248C255 262.384 261.284 278.887 276 284.438C280.514 286.14 285.26 285.999 290 286C290 275.567 288.406 257.774 277.96 252.013C272.168 248.819 261.566 248.523 255 248z"/>
<path style="fill:#dcc4c6; stroke:none;" d="M326 248C326.365 254.661 329.303 257.783 336 258L336 248L326 248z"/>
<path style="fill:#ceb4af; stroke:none;" d="M293 249L293 254C293.83 251.969 293.83 251.03 293 249z"/>
<path style="fill:#c7a9a8; stroke:none;" d="M355.667 249.333C355.222 249.778 356.278 249.722 356.333 249.667C356.778 249.222 355.722 249.278 355.667 249.333z"/>
<path style="fill:#c6a7a4; stroke:none;" d="M192.667 252.333C192.222 252.778 193.278 252.722 193.333 252.667C193.778 252.222 192.722 252.278 192.667 252.333z"/>
<path style="fill:#ddcbc3; stroke:none;" d="M293 254L293 259C293.83 256.97 293.83 256.03 293 254z"/>
<path style="fill:#d9c5be; stroke:none;" d="M316.333 254.667C316.278 254.722 316.222 255.778 316.667 255.333C316.722 255.278 316.778 254.222 316.333 254.667z"/>
<path style="fill:#c7a9a9; stroke:none;" d="M252.333 255.667C252.278 255.722 252.222 256.778 252.667 256.333C252.722 256.278 252.778 255.222 252.333 255.667z"/>
<path style="fill:#c5a5a5; stroke:none;" d="M357 255C358.506 255.683 359.315 255.826 361 256C359.494 255.317 358.685 255.174 357 255z"/>
<path style="fill:#c7a8a5; stroke:none;" d="M316 256L316 259C316.696 257.446 316.696 257.554 316 256z"/>
<path style="fill:#a3785e; stroke:none;" d="M364 258L364 261C364.696 259.446 364.696 259.554 364 258z"/>
<path style="fill:#ceb4af; stroke:none;" d="M293 259L293 263C293.71 261.24 293.71 260.759 293 259z"/>
<path style="fill:#d2b9b4; stroke:none;" d="M315 261L315 264C315.696 262.446 315.696 262.554 315 261z"/>
<path style="fill:#f6f4e3; stroke:none;" d="M157 262C156.997 265.781 157.114 269.439 155.637 273C153.553 278.026 149.668 282.435 149.109 288C148.598 293.08 149.334 303.025 154.225 305.972C160.034 309.473 167.505 305.016 172 301.482C175.242 298.933 178.088 295.91 181 293C177.915 298.796 174.453 304.447 170.947 310C169.225 312.726 166.696 315.648 166.466 319C165.552 332.344 185.459 332 194 332C189.391 338.859 193.457 342.844 200 346.244C206.281 349.508 215.147 355.025 215.728 362.985C216.181 369.198 207.608 370.89 203 372.279C188.332 376.697 172.296 380.791 157 382C165.031 387.581 178.591 387 188 387C215.014 387 241.866 382.812 267 372.548C274.648 369.425 282.241 365.308 289 360.562C291.302 358.945 294.552 357.09 295.929 354.536C297.242 352.101 295.895 349.334 294.996 347C292.921 341.61 290.686 336.223 288.219 331C279.736 313.04 269.625 295.991 257.846 280C254.125 274.95 248.915 265.625 242.985 263.086C238.895 261.334 234.911 265.47 232 267.804C225.829 272.752 218.22 281.989 210 282.891C198.653 284.137 184.474 279.257 175 273.289C169.155 269.607 164.111 262.559 157 262z"/>
<path style="fill:#c4a2a4; stroke:none;" d="M202 262C204.295 265.504 208.06 266.865 212 268C209.153 265.114 205.8 263.383 202 262z"/>
<path style="fill:#bb9596; stroke:none;" d="M326 265C328.613 266.098 331.164 265.993 334 266C331.387 264.902 328.836 265.007 326 265z"/>
<path style="fill:#ddc9c1; stroke:none;" d="M287.333 266.667C287.278 266.722 287.222 267.778 287.667 267.333C287.722 267.278 287.778 266.222 287.333 266.667z"/>
<path style="fill:#cbb2b0; stroke:none;" d="M152 267L152 275C153.161 272.23 153.161 269.77 152 267z"/>
<path style="fill:#caaeaa; stroke:none;" d="M294 267L294 270C294.696 268.446 294.696 268.554 294 267z"/>
<path style="fill:#c7a8a5; stroke:none;" d="M314.333 267.667C314.278 267.722 314.222 268.778 314.667 268.333C314.722 268.278 314.778 267.222 314.333 267.667z"/>
<path style="fill:#ddc9c1; stroke:none;" d="M288.333 270.667C288.278 270.722 288.222 271.778 288.667 271.333C288.722 271.278 288.778 270.222 288.333 270.667z"/>
<path style="fill:#caaeaa; stroke:none;" d="M313.333 271.667C313.278 271.722 313.222 272.778 313.667 272.333C313.722 272.278 313.778 271.222 313.333 271.667z"/>
<path style="fill:#d3bcb5; stroke:none;" d="M225 273L226 274L225 273z"/>
<path style="fill:#c7a8a5; stroke:none;" d="M312.333 275.667C312.278 275.722 312.222 276.778 312.667 276.333C312.722 276.278 312.778 275.222 312.333 275.667z"/>
<path style="fill:#c6a7a4; stroke:none;" d="M185.667 278.333C185.222 278.778 186.278 278.722 186.333 278.667C186.778 278.222 185.722 278.278 185.667 278.333M188.667 279.333C188.222 279.778 189.278 279.722 189.333 279.667C189.778 279.222 188.722 279.278 188.667 279.333z"/>
<path style="fill:#ceb4af; stroke:none;" d="M309.667 279.333C309.222 279.778 310.278 279.722 310.333 279.667C310.778 279.222 309.722 279.278 309.667 279.333z"/>
<path style="fill:#e4d8cc; stroke:none;" d="M151.333 280.667C151.278 280.722 151.222 281.778 151.667 281.333C151.722 281.278 151.778 280.222 151.333 280.667z"/>
<path style="fill:#d3bcb5; stroke:none;" d="M191.667 280.333C191.222 280.778 192.278 280.722 192.333 280.667C192.778 280.222 191.722 280.278 191.667 280.333M196.667 281.333C196.222 281.778 197.278 281.722 197.333 281.667C197.778 281.222 196.722 281.278 196.667 281.333z"/>
<path style="fill:#e4d8cc; stroke:none;" d="M201.667 282.333C201.222 282.778 202.278 282.722 202.333 282.667C202.778 282.222 201.722 282.278 201.667 282.333z"/>
<path style="fill:#d3bcb5; stroke:none;" d="M203 282C204.248 282.685 204.548 282.749 206 283C204.752 282.315 204.452 282.251 203 282z"/>
<path style="fill:#c2a09e; stroke:none;" d="M206 282C208.613 283.098 211.165 282.993 214 283C211.387 281.902 208.836 282.007 206 282z"/>
<path style="fill:#c19d9d; stroke:none;" d="M290 282L290 286C290.71 284.241 290.71 283.759 290 282z"/>
<path style="fill:#d3bcb5; stroke:none;" d="M261 285L262 286L261 285z"/>
<path style="fill:#d5bcb7; stroke:none;" d="M278.667 285.333C278.222 285.778 279.278 285.722 279.333 285.667C279.778 285.222 278.722 285.278 278.667 285.333z"/>
<path style="fill:#e4d8cc; stroke:none;" d="M148 286L148 289C148.696 287.446 148.696 287.554 148 286z"/>
<path style="fill:#c19d9d; stroke:none;" d="M282 286C284.613 287.098 287.164 286.993 290 287C287.387 285.902 284.835 286.007 282 286z"/>
<path style="fill:#d3bcb5; stroke:none;" d="M148 289L148 292C148.696 290.446 148.696 290.554 148 289z"/>
<path style="fill:#d6bfb8; stroke:none;" d="M319.667 289.333C319.222 289.778 320.278 289.722 320.333 289.667C320.778 289.222 319.722 289.278 319.667 289.333z"/>
<path style="fill:#f3eddf; stroke:none;" d="M290 304C290.017 309.912 291.213 314.651 293.784 320C295.844 324.286 298.398 328.343 301.465 331.985C310.32 342.506 323.447 343.792 336 339.961C341.095 338.406 345.731 335.252 351 334.329C357.732 333.149 365.362 334.767 372 336C370.641 329.32 365.12 326.397 359 324.359C356.605 323.561 353.451 323.273 351.589 321.411C349.733 319.556 349.413 316.378 348.561 314C346.703 308.815 344.435 303.494 341.211 299C333.303 287.976 320.994 286.383 310.019 294.221C306.959 296.405 305.118 300.912 301.776 302.397C298.529 303.841 293.536 303.721 290 304z"/>
<path style="fill:#d7c3bb; stroke:none;" d="M180.333 293.667C180.278 293.722 180.222 294.778 180.667 294.333C180.722 294.278 180.778 293.222 180.333 293.667z"/>
<path style="fill:#aa7e73; stroke:none;" d="M353 294L353 305C354.431 301.59 354.431 297.41 353 294z"/>
<path style="fill:#e4d8cc; stroke:none;" d="M149 295L149 298C149.696 296.446 149.696 296.554 149 295z"/>
<path style="fill:#d2bdb9; stroke:none;" d="M304 299C298.563 300.607 292.642 300 287 300C290.404 301.961 296.011 301.047 300 301C301.998 300.977 304.953 301.309 304 299z"/>
<path style="fill:#c6a7a4; stroke:none;" d="M150.333 300.667C150.278 300.722 150.222 301.778 150.667 301.333C150.722 301.278 150.778 300.222 150.333 300.667z"/>
<path style="fill:#ddd0ca; stroke:none;" d="M287 301L288 311L290 311L290 304L304 303L304 301L287 301z"/>
<path style="fill:#d3bcb5; stroke:none;" d="M167 304L168 305L167 304z"/>
<path style="fill:#ccb3b1; stroke:none;" d="M287 306L287 309C287.696 307.446 287.696 307.554 287 306z"/>
<path style="fill:#e4d8cc; stroke:none;" d="M155 307C157.052 307.874 158.747 307.953 161 308C158.948 307.126 157.253 307.047 155 307z"/>
<path style="fill:#d3bcb5; stroke:none;" d="M171 309L172 310L171 309z"/>
<path style="fill:#ede5d7; stroke:none;" d="M134.001 311.743C112.147 320.019 124.281 366.777 148.961 358.08C165.838 352.133 156.265 329.792 149.64 320C146.149 314.838 140.896 309.132 134.001 311.743z"/>
<path style="fill:#a47963; stroke:none;" d="M120.333 313.667C120.278 313.722 120.222 314.778 120.667 314.333C120.722 314.278 120.778 313.222 120.333 313.667M119 317L119 320C119.696 318.446 119.696 318.554 119 317z"/>
<path style="fill:#deccc3; stroke:none;" d="M350.333 320.667C350.278 320.722 350.222 321.778 350.667 321.333C350.722 321.278 350.778 320.222 350.333 320.667z"/>
<path style="fill:#fbfaeb; stroke:none;" d="M124 336C126.494 337.265 128.694 340.6 131.325 341.249C141.193 343.684 144.06 318.878 132.996 323.198C131.887 323.632 130.925 324.505 130.005 325.228C128.652 326.291 127.362 327.637 126.318 329.002C124.604 331.244 124.205 333.277 124 336z"/>
<path style="fill:#dac6be; stroke:none;" d="M351 322C352.248 322.685 352.549 322.749 354 323C352.752 322.315 352.452 322.251 351 322z"/>
<path style="fill:#d3bcb5; stroke:none;" d="M168 325L169 326L168 325M170 327L171 328L170 327z"/>
<path style="fill:#a3785e; stroke:none;" d="M384 328L384 332C384.71 330.24 384.71 329.76 384 328z"/>
<path style="fill:#e0d1c6; stroke:none;" d="M175.667 330.333C175.222 330.778 176.278 330.722 176.333 330.667C176.778 330.222 175.722 330.278 175.667 330.333z"/>
<path style="fill:#e4d8cc; stroke:none;" d="M179.667 331.333C179.222 331.778 180.278 331.722 180.333 331.667C180.778 331.222 179.722 331.278 179.667 331.333z"/>
<path style="fill:#9f6871; stroke:none;" d="M3 332L3 396L5 396C5.01097 379.431 7.60184 362.576 5.42438 346C4.79498 341.209 5.32086 336.365 3 332z"/>
<path style="fill:#d3bcb5; stroke:none;" d="M183 332C186.404 333.429 190.364 333.134 194 334C191.421 331.049 186.706 332 183 332z"/>
<path style="fill:#d6bfb8; stroke:none;" d="M349.667 334.333C349.222 334.778 350.278 334.722 350.333 334.667C350.778 334.222 349.722 334.278 349.667 334.333z"/>
<path style="fill:#c19f9d; stroke:none;" d="M351 334C354.432 335.44 358.3 335 362 335C358.568 333.56 354.7 334 351 334z"/>
<path style="fill:#c5a5a3; stroke:none;" d="M346.667 335.333C346.222 335.778 347.278 335.722 347.333 335.667C347.778 335.222 346.722 335.278 346.667 335.333z"/>
<path style="fill:#d2b9b3; stroke:none;" d="M364 335C366.052 335.874 367.747 335.953 370 336C367.948 335.126 366.253 335.047 364 335z"/>
<path style="fill:#cbafaa; stroke:none;" d="M123.333 337.667C123.278 337.722 123.222 338.778 123.667 338.333C123.722 338.278 123.778 337.222 123.333 337.667M158 338L158 341C158.696 339.446 158.696 339.554 158 338z"/>
<path style="fill:#a47963; stroke:none;" d="M115 339L115 345C115.951 342.715 115.951 341.285 115 339z"/>
<path style="fill:#dac6be; stroke:none;" d="M315.667 341.333C315.222 341.778 316.278 341.722 316.333 341.667C316.778 341.222 315.722 341.278 315.667 341.333M329.667 341.333C329.222 341.778 330.278 341.722 330.333 341.667C330.778 341.222 329.722 341.278 329.667 341.333z"/>
<path style="fill:#c19f9d; stroke:none;" d="M319 342C321.89 343.213 324.874 342.998 328 343C325.11 341.787 322.126 342.002 319 342z"/>
<path style="fill:#c7a9a5; stroke:none;" d="M158.333 344.667C158.278 344.722 158.222 345.778 158.667 345.333C158.722 345.278 158.778 344.222 158.333 344.667z"/>
<path style="fill:#9d744b; stroke:none;" d="M10 345L10 401C11.8752 396.531 11 390.809 11 386L11 359C11 354.464 11.7688 349.215 10 345z"/>
<path style="fill:#c09d9d; stroke:none;" d="M173 345C174.506 345.683 175.315 345.826 177 346C175.494 345.317 174.685 345.174 173 345z"/>
<path style="fill:#eee7dc; stroke:none;" d="M170 346.649C166.655 347.655 161.829 350.185 160.042 353.326C157.391 357.986 161.786 366.556 166.044 368.821C170.56 371.224 177.399 369.54 182 368.103C184.235 367.404 187.583 366.572 188.957 364.49C190.607 361.99 189.029 358.409 187.945 356.001C184.706 348.8 178.005 344.24 170 346.649z"/>
<path style="fill:#9c7149; stroke:none;" d="M114 348L114 353L105 353C108.163 354.327 111.586 354 115 354C114.953 351.747 114.874 350.052 114 348z"/>
<path style="fill:#d3bcb5; stroke:none;" d="M206 349L207 350L206 349z"/>
<path style="fill:#dac7be; stroke:none;" d="M150.667 357.333C150.222 357.778 151.278 357.722 151.333 357.667C151.778 357.222 150.722 357.278 150.667 357.333z"/>
<path style="fill:#c4a3a2; stroke:none;" d="M159.333 358.667C159.278 358.722 159.222 359.778 159.667 359.333C159.722 359.278 159.778 358.222 159.333 358.667z"/>
<path style="fill:#d3bcb5; stroke:none;" d="M291 358L292 359L291 358z"/>
<path style="fill:#c2a09e; stroke:none;" d="M215 360L215 368C216.161 365.23 216.161 362.77 215 360z"/>
<path style="fill:#9d744b; stroke:none;" d="M496 360L496 377C497.883 372.514 497.883 364.486 496 360z"/>
<path style="fill:#cdb2b1; stroke:none;" d="M106 361C107.506 361.683 108.315 361.826 110 362C108.494 361.317 107.685 361.174 106 361z"/>
<path style="fill:#c7a9a7; stroke:none;" d="M160.333 361.667C160.278 361.722 160.222 362.778 160.667 362.333C160.722 362.278 160.778 361.222 160.333 361.667z"/>
<path style="fill:#dbc9c5; stroke:none;" d="M105 362L105 369C106.059 366.466 106.059 364.534 105 362z"/>
<path style="fill:#eae0da; stroke:none;" d="M106 362C106 369.593 105.907 377.514 115 379.606C120.721 380.922 127.26 379.653 131.981 376.2C133.828 374.849 136.436 372.735 136.079 370.129C135.314 364.545 122.208 363.595 118 362.804C113.99 362.05 110.065 362 106 362z"/>
<path style="fill:#c6a7a6; stroke:none;" d="M116 362C117.248 362.685 117.548 362.749 119 363C117.752 362.315 117.451 362.251 116 362z"/>
<path style="fill:#cdb2b1; stroke:none;" d="M121.667 363.333C121.222 363.778 122.278 363.722 122.333 363.667C122.778 363.222 121.722 363.278 121.667 363.333z"/>
<path style="fill:#d7c2bc; stroke:none;" d="M190.333 363.667C190.278 363.722 190.222 364.778 190.667 364.333C190.722 364.278 190.778 363.222 190.333 363.667z"/>
<path style="fill:#c6a7a6; stroke:none;" d="M126.667 364.333C126.222 364.778 127.278 364.722 127.333 364.667C127.778 364.222 126.722 364.278 126.667 364.333z"/>
<path style="fill:#c2a1a1; stroke:none;" d="M105.333 369.667C105.278 369.722 105.222 370.778 105.667 370.333C105.722 370.278 105.778 369.222 105.333 369.667z"/>
<path style="fill:#dac8c1; stroke:none;" d="M175.667 369.333C175.222 369.778 176.278 369.722 176.333 369.667C176.778 369.222 175.722 369.278 175.667 369.333z"/>
<path style="fill:#dccac0; stroke:none;" d="M207.667 370.333C207.222 370.778 208.278 370.722 208.333 370.667C208.778 370.222 207.722 370.278 207.667 370.333z"/>
<path style="fill:#e4d8cc; stroke:none;" d="M204.667 371.333C204.222 371.778 205.278 371.722 205.333 371.667C205.778 371.222 204.722 371.278 204.667 371.333z"/>
<path style="fill:#dccac0; stroke:none;" d="M200 372C201.248 372.685 201.548 372.749 203 373C201.752 372.315 201.452 372.251 200 372z"/>
<path style="fill:#e4d8cc; stroke:none;" d="M197.667 373.333C197.222 373.778 198.278 373.722 198.333 373.667C198.778 373.222 197.722 373.278 197.667 373.333M193.667 374.333C193.222 374.778 194.278 374.722 194.333 374.667C194.778 374.222 193.722 374.278 193.667 374.333z"/>
<path style="fill:#caaeaa; stroke:none;" d="M261.667 374.333C261.222 374.778 262.278 374.722 262.333 374.667C262.778 374.222 261.722 374.278 261.667 374.333z"/>
<path style="fill:#e0d1c6; stroke:none;" d="M189.667 375.333C189.222 375.778 190.278 375.722 190.333 375.667C190.778 375.222 189.722 375.278 189.667 375.333z"/>
<path style="fill:#e4d8cc; stroke:none;" d="M185.667 376.333C185.222 376.778 186.278 376.722 186.333 376.667C186.778 376.222 185.722 376.278 185.667 376.333z"/>
<path style="fill:#dccac0; stroke:none;" d="M180 377C181.248 377.685 181.549 377.749 183 378C181.752 377.315 181.452 377.251 180 377z"/>
<path style="fill:#a57d62; stroke:none;" d="M496 377L496 392C497.74 387.852 497.74 381.148 496 377z"/>
<path style="fill:#d3bcb5; stroke:none;" d="M175 378C176.248 378.685 176.548 378.749 178 379C176.752 378.315 176.452 378.251 175 378z"/>
<path style="fill:#d7c3bb; stroke:none;" d="M170 379C171.248 379.685 171.549 379.749 173 380C171.752 379.315 171.452 379.251 170 379z"/>
<path style="fill:#cfb5af; stroke:none;" d="M246.667 379.333C246.222 379.778 247.278 379.722 247.333 379.667C247.778 379.222 246.722 379.278 246.667 379.333z"/>
<path style="fill:#dbc9c5; stroke:none;" d="M116 380C118.052 380.874 119.747 380.953 122 381C119.948 380.126 118.253 380.047 116 380z"/>
<path style="fill:#dccac0; stroke:none;" d="M165 380C166.248 380.685 166.548 380.749 168 381C166.752 380.315 166.452 380.251 165 380z"/>
<path style="fill:#c6a7a4; stroke:none;" d="M157.667 381.333C157.222 381.778 158.278 381.722 158.333 381.667C158.778 381.222 157.722 381.278 157.667 381.333z"/>
<path style="fill:#dccac0; stroke:none;" d="M159 381C160.248 381.685 160.548 381.749 162 382C160.752 381.315 160.452 381.251 159 381z"/>
<path style="fill:#d7c3bb; stroke:none;" d="M155.667 382.333C155.222 382.778 156.278 382.722 156.333 382.667C156.778 382.222 155.722 382.278 155.667 382.333z"/>
<path style="fill:#e4d8cc; stroke:none;" d="M233.667 382.333C233.222 382.778 234.278 382.722 234.333 382.667C234.778 382.222 233.722 382.278 233.667 382.333z"/>
<path style="fill:#d3bcb5; stroke:none;" d="M228.667 383.333C228.222 383.778 229.278 383.722 229.333 383.667C229.778 383.222 228.722 383.278 228.667 383.333M162.667 384.333C162.222 384.778 163.278 384.722 163.333 384.667C163.778 384.222 162.722 384.278 162.667 384.333M223 384C224.248 384.685 224.548 384.749 226 385C224.752 384.315 224.452 384.251 223 384z"/>
<path style="fill:#cfb5af; stroke:none;" d="M166.667 385.333C166.222 385.778 167.278 385.722 167.333 385.667C167.778 385.222 166.722 385.278 166.667 385.333z"/>
<path style="fill:#d7c3bb; stroke:none;" d="M216 385C217.506 385.683 218.315 385.826 220 386C218.494 385.317 217.685 385.174 216 385z"/>
<path style="fill:#e1d5cf; stroke:none;" d="M106 386C107.228 399.534 119.677 397 130 397C127.603 390.001 112.623 387.533 106 386z"/>
<path style="fill:#cfb5af; stroke:none;" d="M172 386C173.248 386.685 173.548 386.749 175 387C173.752 386.315 173.452 386.251 172 386z"/>
<path style="fill:#e4d8cc; stroke:none;" d="M207.667 386.333C207.222 386.778 208.278 386.722 208.333 386.667C208.778 386.222 207.722 386.278 207.667 386.333z"/>
<path style="fill:#d3bcb5; stroke:none;" d="M209 386C210.248 386.685 210.548 386.749 212 387C210.752 386.315 210.452 386.251 209 386M182 387C187.715 389.398 195.831 388 202 388C196.285 385.602 188.169 387 182 387z"/>
<path style="fill:#e2d4ca; stroke:none;" d="M237 388C239.332 388.985 241.457 388.981 244 389C241.668 388.015 239.543 388.019 237 388z"/>
<path style="fill:#cfb7b4; stroke:none;" d="M116.667 389.333C116.222 389.778 117.278 389.722 117.333 389.667C117.778 389.222 116.722 389.278 116.667 389.333z"/>
<path style="fill:#decdc5; stroke:none;" d="M234.667 389.333C234.222 389.778 235.278 389.722 235.333 389.667C235.778 389.222 234.722 389.278 234.667 389.333z"/>
<path style="fill:#f3efe1; stroke:none;" d="M259 432C255.99 431.992 252.893 432.127 250 431.146C248.245 430.551 246.55 429.645 245.133 428.442C235.96 420.655 245.545 411.358 247.582 403C248.538 399.078 248.69 392.422 244.772 390.028C239.084 386.553 227.235 390.982 224.028 396.326C222.082 399.567 223.158 404.392 222.91 408C222.513 413.796 221.207 419.444 219.576 425C218.052 430.187 212.633 438.384 216.179 443.681C219.258 448.281 225.995 443.599 230 443.13C240.9 441.853 258.811 447.988 259 432z"/>
<path style="fill:#ad8679; stroke:none;" d="M496 392L496 404C497.512 400.396 497.512 395.604 496 392z"/>
<path style="fill:#a27d52; stroke:none;" d="M71 393L71 399C71.9511 396.715 71.9511 395.285 71 393z"/>
<path style="fill:#cab3ac; stroke:none;" d="M72 393C71.9324 400.555 66.0935 406.622 67.2145 413.999C68.1191 419.952 71.6735 420.872 76.9846 420.15C79.0176 419.873 81.2293 419.759 82.2539 417.682C85.4697 411.162 77.1978 398.48 74 393L72 393z"/>
<path style="fill:#ae777e; stroke:none;" d="M270 407C280.367 419.094 299.68 418.052 314 419.054C320.849 419.533 327.104 423.712 334 424.7C341.271 425.741 348.694 425 356 425C364.981 424.999 374.048 425.62 383 424.914C391.735 424.226 400.608 423.453 409 420.883C413.944 419.37 417.55 418.646 418 413C410.455 412.979 402.094 412.196 395.001 409.438C392.089 408.305 388.711 406.283 387.966 402.985C387.368 400.339 389.147 397.423 390 395C380.597 392.221 368.782 394 359 394C341.184 394 324.525 395.787 307 398.715C294.769 400.758 281.648 402.63 270 407z"/>
<path style="fill:#c19f9e; stroke:none;" d="M222 396L222 400C222.71 398.241 222.71 397.759 222 396z"/>
<path style="fill:#c7a5a1; stroke:none;" d="M2 397L2 432C3.4412 428.565 3 424.702 3 421C3 413.784 4.80207 403.678 2 397z"/>
<path style="fill:#c9adab; stroke:none;" d="M113 397C117.217 398.769 122.459 398 127 398C122.783 396.231 117.541 397 113 397z"/>
<path style="fill:#ebded8; stroke:none;" d="M198 397C198 406.497 196.302 417.873 199 427L201 427C202.797 424.027 205.785 421.821 207.348 418.791C212.134 409.508 208.977 397.996 198 397z"/>
<path style="fill:#b6987f; stroke:none;" d="M71.3333 399.667C71.2778 399.722 71.2223 400.778 71.6667 400.333C71.7222 400.278 71.7778 399.222 71.3333 399.667z"/>
<path style="fill:#efe6da; stroke:none;" d="M145 450C149.359 455.234 155.722 454 162 454L162 451C179.958 450.617 187.158 437.516 184.87 421C184.123 415.614 186.24 399.229 177.055 400.451C171.661 401.169 171.059 413.756 169.633 418C165.093 431.516 156.711 442.002 145 450z"/>
<path style="fill:#dfcbc6; stroke:none;" d="M221 400C219.809 408.098 217.071 416.427 213.985 424C212.15 428.502 208.956 432.955 209.217 438C209.792 449.102 223.66 453.184 229 443C225.613 443.723 220.605 446.899 217.434 444.356C213.411 441.132 216.093 435.737 217.551 432C221.611 421.597 223 411.087 223 400L221 400z"/>
<path style="fill:#a57d62; stroke:none;" d="M10 401L10 418C11.8826 413.514 11.8826 405.486 10 401z"/>
<path style="fill:#caacaa; stroke:none;" d="M220.333 402.667C220.278 402.722 220.222 403.778 220.667 403.333C220.722 403.278 220.778 402.222 220.333 402.667z"/>
<path style="fill:#d1b5b2; stroke:none;" d="M194 404L194 414C195.346 410.793 195.346 407.207 194 404z"/>
<path style="fill:#dcc6c0; stroke:none;" d="M195 404C194.992 416.12 193.256 426.995 196 439C203.036 436.917 204.466 428.54 205 422C202.683 423.383 202.037 424.487 201 427L199 427C197.233 419.577 198 411.593 198 404L195 404z"/>
<path style="fill:#ceb1b0; stroke:none;" d="M209 405L209 411C209.951 408.715 209.951 407.285 209 405z"/>
<path style="fill:#d0b5b1; stroke:none;" d="M172.333 406.667C172.278 406.722 172.222 407.778 172.667 407.333C172.722 407.278 172.778 406.222 172.333 406.667z"/>
<path style="fill:#d7c1bb; stroke:none;" d="M184 406L184 412C184.951 409.715 184.951 408.285 184 406z"/>
<path style="fill:#af8f70; stroke:none;" d="M66 407L66 413C66.9511 410.715 66.9511 409.285 66 407z"/>
<path style="fill:#caacaa; stroke:none;" d="M218.333 410.667C218.278 410.722 218.222 411.778 218.667 411.333C218.722 411.278 218.778 410.222 218.333 410.667z"/>
<path style="fill:#d7c1bb; stroke:none;" d="M171.333 411.667C171.278 411.722 171.222 412.778 171.667 412.333C171.722 412.278 171.778 411.222 171.333 411.667z"/>
<path style="fill:#c09d9c; stroke:none;" d="M148 412C150.332 412.985 152.457 412.981 155 413C152.668 412.015 150.543 412.019 148 412z"/>
<path style="fill:#a17159; stroke:none;" d="M409 412C411.89 413.213 414.874 412.998 418 413C415.11 411.787 412.126 412.002 409 412z"/>
<path style="fill:#c09d9c; stroke:none;" d="M122 413C124.332 413.985 126.457 413.981 129 414C126.668 413.015 124.543 413.019 122 413z"/>
<path style="fill:#cfb5b0; stroke:none;" d="M129 413C131.052 413.874 132.747 413.953 135 414C132.948 413.126 131.253 413.047 129 413z"/>
<path style="fill:#decdc4; stroke:none;" d="M135 413C137.332 413.985 139.457 413.981 142 414C139.668 413.015 137.543 413.019 135 413z"/>
<path style="fill:#eee6d9; stroke:none;" d="M110 415C110.18 423.666 113.282 431.86 116 440C116.859 442.571 117.58 447.179 120.419 448.353C124.384 449.994 130.678 445.493 134 443.691C140.099 440.383 151.771 434.758 154.397 427.961C156.057 423.662 155 417.552 155 413C139.996 413 124.971 414.357 110 415z"/>
<path style="fill:#decdc4; stroke:none;" d="M109 414L109 419C109.683 417.494 109.826 416.685 110 415L116 415C113.668 414.015 111.543 414.019 109 414z"/>
<path style="fill:#c09d9c; stroke:none;" d="M155 414L155 429C156.74 424.852 156.74 418.148 155 414z"/>
<path style="fill:#9d744b; stroke:none;" d="M495 414L495 423C496.256 420.006 496.256 416.994 495 414z"/>
<path style="fill:#c6a6a6; stroke:none;" d="M208.333 415.667C208.278 415.722 208.222 416.778 208.667 416.333C208.722 416.278 208.778 415.222 208.333 415.667z"/>
<path style="fill:#d3bbb6; stroke:none;" d="M184 416L184 419C184.696 417.446 184.696 417.554 184 416z"/>
<path style="fill:#d2bab4; stroke:none;" d="M241.333 416.667C241.278 416.722 241.222 417.778 241.667 417.333C241.722 417.278 241.778 416.222 241.333 416.667z"/>
<path style="fill:#9f7453; stroke:none;" d="M251 416L251 420C251.71 418.241 251.71 417.759 251 416z"/>
<path style="fill:#ad8679; stroke:none;" d="M10 418L10 444C12.477 438.097 12.477 423.903 10 418z"/>
<path style="fill:#dbc7c0; stroke:none;" d="M169.333 418.667C169.278 418.722 169.222 419.778 169.667 419.333C169.722 419.278 169.778 418.222 169.333 418.667z"/>
<path style="fill:#a17159; stroke:none;" d="M308 419C311.432 420.44 315.3 420 319 420C315.568 418.56 311.7 419 308 419z"/>
<path style="fill:#bd9c9a; stroke:none;" d="M76 420C77.769 420.779 79.0359 420.912 81 421C79.231 420.221 77.9641 420.088 76 420z"/>
<path style="fill:#cbafab; stroke:none;" d="M110.333 421.667C110.278 421.722 110.222 422.778 110.667 422.333C110.722 422.278 110.778 421.222 110.333 421.667z"/>
<path style="fill:#dfcdc5; stroke:none;" d="M185 421L185 426C185.83 423.969 185.83 423.03 185 421z"/>
<path style="fill:#9c7149; stroke:none;" d="M73 422L73 430C74.1614 427.23 74.1614 424.77 73 422z"/>
<path style="fill:#a3785e; stroke:none;" d="M261.667 422.333C261.222 422.778 262.278 422.722 262.333 422.667C262.778 422.222 261.722 422.278 261.667 422.333M265.667 423.333C265.222 423.778 266.278 423.722 266.333 423.667C266.778 423.222 265.722 423.278 265.667 423.333z"/>
<path style="fill:#a57d62; stroke:none;" d="M495 423L495 438C496.74 433.852 496.74 427.148 495 423z"/>
<path style="fill:#a17159; stroke:none;" d="M386 424C387.769 424.779 389.036 424.912 391 425C389.231 424.221 387.964 424.088 386 424z"/>
<path style="fill:#c7a9a6; stroke:none;" d="M111.333 425.667C111.278 425.722 111.222 426.778 111.667 426.333C111.722 426.278 111.778 425.222 111.333 425.667z"/>
<path style="fill:#d4b6b5; stroke:none;" d="M345 425C352.512 430.911 366.18 427.696 375 427L375 425L345 425z"/>
<path style="fill:#c3a1a0; stroke:none;" d="M204.333 426.667C204.278 426.722 204.222 427.778 204.667 427.333C204.722 427.278 204.778 426.222 204.333 426.667z"/>
<path style="fill:#d2bab4; stroke:none;" d="M242 426L243 427L242 426z"/>
<path style="fill:#c4a394; stroke:none;" d="M349.667 427.333C349.222 427.778 350.278 427.722 350.333 427.667C350.778 427.222 349.722 427.278 349.667 427.333z"/>
<path style="fill:#b49074; stroke:none;" d="M370.667 427.333C370.222 427.778 371.278 427.722 371.333 427.667C371.778 427.222 370.722 427.278 370.667 427.333z"/>
<path style="fill:#c4a394; stroke:none;" d="M353 428C356.697 429.552 361.017 429 365 429C361.303 427.448 356.983 428 353 428z"/>
<path style="fill:#b49074; stroke:none;" d="M365.667 428.333C365.222 428.778 366.278 428.722 366.333 428.667C366.778 428.222 365.722 428.278 365.667 428.333z"/>
<path style="fill:#c4a3a1; stroke:none;" d="M112.333 429.667C112.278 429.722 112.222 430.778 112.667 430.333C112.722 430.278 112.778 429.222 112.333 429.667z"/>
<path style="fill:#dfcdc5; stroke:none;" d="M185 430L185 434C185.71 432.241 185.71 431.759 185 430z"/>
<path style="fill:#c9aca9; stroke:none;" d="M250 431C251.248 431.685 251.548 431.749 253 432C251.752 431.315 251.452 431.251 250 431z"/>
<path style="fill:#be9d9b; stroke:none;" d="M0 432L0 507L2 507L2 432L0 432z"/>
<path style="fill:#c7a9a6; stroke:none;" d="M113.333 432.667C113.278 432.722 113.222 433.778 113.667 433.333C113.722 433.278 113.778 432.222 113.333 432.667M114.333 435.667C114.278 435.722 114.222 436.778 114.667 436.333C114.722 436.278 114.778 435.222 114.333 435.667z"/>
<path style="fill:#c8a9a6; stroke:none;" d="M184.333 436.667C184.278 436.722 184.222 437.778 184.667 437.333C184.722 437.278 184.778 436.222 184.333 436.667z"/>
<path style="fill:#c7a9a6; stroke:none;" d="M115.333 438.667C115.278 438.722 115.222 439.778 115.667 439.333C115.722 439.278 115.778 438.222 115.333 438.667z"/>
<path style="fill:#c5a3a3; stroke:none;" d="M209.333 440.667C209.278 440.722 209.222 441.778 209.667 441.333C209.722 441.278 209.778 440.222 209.333 440.667z"/>
<path style="fill:#c19f9e; stroke:none;" d="M234 443C235.506 443.683 236.315 443.826 238 444C236.494 443.317 235.685 443.174 234 443z"/>
<path style="fill:#e2d4ca; stroke:none;" d="M238 443C241.697 444.552 246.017 444 250 444C246.303 442.448 241.983 443 238 443z"/>
<path style="fill:#c9aca9; stroke:none;" d="M250.667 443.333C250.222 443.778 251.278 443.722 251.333 443.667C251.778 443.222 250.722 443.278 250.667 443.333z"/>
<path style="fill:#cfb5b0; stroke:none;" d="M120 449C121.248 449.685 121.548 449.749 123 450C121.752 449.315 121.452 449.251 120 449z"/>
<path style="fill:#ba9597; stroke:none;" d="M138 449C140.613 450.098 143.165 449.993 146 450C143.387 448.902 140.835 449.007 138 449z"/>
<path style="fill:#d8c7c4; stroke:none;" d="M138 450C142.38 459.281 153.66 458.039 162 455C158.434 453.504 154.713 454.548 151 453.687C146.213 452.577 143.167 450.061 138 450z"/>
<path style="fill:#d0b5b1; stroke:none;" d="M162 451L162 454C163.015 452.861 163.309 452.388 164 451L162 451z"/>
<path style="fill:#a3785e; stroke:none;" d="M252.667 452.333C252.222 452.778 253.278 452.722 253.333 452.667C253.778 452.222 252.722 452.278 252.667 452.333z"/>
<path style="fill:#ad8679; stroke:none;" d="M494 452L494 465C495.591 461.209 495.591 455.791 494 452z"/>
<path style="fill:#cbabac; stroke:none;" d="M503 510C504.769 505.785 504 500.535 504 496L504 469C504 464.096 502.436 456.959 507 454C501.262 452.711 503 463.465 503 467L503 510z"/>
<path style="fill:#e0c8c8; stroke:none;" d="M504 454L504 505C511.326 489.786 507.044 470.123 507 454L504 454z"/>
<path style="fill:#c4a6a6; stroke:none;" d="M160.667 455.333C160.222 455.778 161.278 455.722 161.333 455.667C161.778 455.222 160.722 455.278 160.667 455.333z"/>
<path style="fill:#a3785e; stroke:none;" d="M241.667 455.333C241.222 455.778 242.278 455.722 242.333 455.667C242.778 455.222 241.722 455.278 241.667 455.333z"/>
<path style="fill:#c4a6a6; stroke:none;" d="M145 457C147.89 458.213 150.874 457.998 154 458C151.11 456.787 148.126 457.002 145 457z"/>
<path style="fill:#a3785e; stroke:none;" d="M192.667 458.333C192.222 458.778 193.278 458.722 193.333 458.667C193.778 458.222 192.722 458.278 192.667 458.333M215 461C216.248 461.685 216.548 461.749 218 462C216.752 461.315 216.452 461.251 215 461M201.333 462.667C201.278 462.722 201.222 463.778 201.667 463.333C201.722 463.278 201.778 462.222 201.333 462.667z"/>
<path style="fill:#c6b9af; stroke:none;" d="M80 465C86.1722 470.052 97.6273 468.369 105 467C98.0233 464.072 87.5553 465 80 465z"/>
<path style="fill:#bb9f9b; stroke:none;" d="M93 465C95.6127 466.098 98.1645 465.993 101 466C98.3873 464.902 95.8355 465.007 93 465z"/>
<path style="fill:#b39b80; stroke:none;" d="M83.6667 467.333C83.2222 467.778 84.2778 467.722 84.3333 467.667C84.7778 467.222 83.7222 467.278 83.6667 467.333z"/>
<path style="fill:#a3785e; stroke:none;" d="M106 467C111.707 469.395 119.846 468 126 468L170 468C164.293 465.605 156.154 467 150 467L106 467z"/>
<path style="fill:#ad9271; stroke:none;" d="M87 468C90.1633 469.327 93.5856 469 97 469C93.8367 467.673 90.4144 468 87 468z"/>
<path style="fill:#9d744b; stroke:none;" d="M11 470L11 487C12.8826 482.514 12.8826 474.486 11 470z"/>
<path style="fill:#ad8679; stroke:none;" d="M493 477L493 488C494.431 484.59 494.431 480.41 493 477z"/>
<path style="fill:#a57d62; stroke:none;" d="M11 487L11 496C12.2561 493.006 12.2561 489.994 11 487z"/>
<path style="fill:#ad8679; stroke:none;" d="M13 496C17.974 498.087 24.638 497 30 497C25.026 494.913 18.362 496 13 496z"/>
<path style="fill:#a57d62; stroke:none;" d="M30 496C34.974 498.087 41.6381 497 47 497C42.026 494.913 35.3619 496 30 496z"/>
<path style="fill:#9d744b; stroke:none;" d="M47 496C50.4324 497.44 54.2998 497 58 497C54.5676 495.56 50.7002 496 47 496z"/>
<path style="fill:#ad8679; stroke:none;" d="M69 497C72.6975 498.552 77.0168 498 81 498C77.3025 496.448 72.9832 497 69 497z"/>
<path style="fill:#a57d62; stroke:none;" d="M81 497C85.974 499.087 92.6381 498 98 498C93.026 495.913 86.362 497 81 497z"/>
<path style="fill:#9d744b; stroke:none;" d="M98 497C102.974 499.087 109.638 498 115 498C110.026 495.913 103.362 497 98 497z"/>
<path style="fill:#ad8679; stroke:none;" d="M126 498C129.697 499.552 134.017 499 138 499C134.303 497.448 129.983 498 126 498z"/>
<path style="fill:#a57d62; stroke:none;" d="M138 498C141.432 499.44 145.3 499 149 499C145.568 497.56 141.7 498 138 498z"/>
<path style="fill:#9d744b; stroke:none;" d="M149 498C152.699 499.552 157.017 499 161 499L184 499C180.301 497.448 175.983 498 172 498L149 498M407 498C411.974 500.087 418.638 499 424 499C419.026 496.913 412.362 498 407 498z"/>
<path style="fill:#a57d62; stroke:none;" d="M424 498C428.974 500.087 435.638 499 441 499C436.026 496.913 429.362 498 424 498z"/>
<path style="fill:#ad8679; stroke:none;" d="M441 498C448.169 501.008 459.239 499 467 499C459.831 495.992 448.761 498 441 498M201 499C205.969 501.085 212.65 500 218 500L254 500C249.031 497.915 242.35 499 237 499L201 499z"/>
<path style="fill:#a57d62; stroke:none;" d="M254 499C261.4 502.105 272.993 500 281 500L340 500C332.601 496.895 321.007 499 313 499L254 499z"/>
<path style="fill:#ad8679; stroke:none;" d="M340 499C344.72 500.981 350.92 500 356 500L390 500C385.28 498.019 379.08 499 374 499L340 499z"/>
<path style="fill:#a07578; stroke:none;" d="M105 503L105 507L120 507C115.783 505.231 110.541 506 106 506L106 504L241 504C236.785 502.231 231.536 503 227 503L200 503L105 503z"/>
<path style="fill:#9b6d70; stroke:none;" d="M251 503L251 505C265.877 507.003 280.253 508.144 295 504C290.531 502.125 284.809 503 280 503L251 503z"/>
<path style="fill:#996d71; stroke:none;" d="M106 504L106 506C133.948 506 161.97 507.33 190 506.996C203.322 506.838 216.658 505 230 505C226.041 503.339 221.26 504 217 504L192 504L106 504z"/>
<path style="fill:#a77e80; stroke:none;" d="M196 506C200.217 507.769 205.459 507 210 507C205.783 505.231 200.541 506 196 506z"/>
<path style="fill:#cfcfcf; stroke:none;" d="M0 507L0 512L348 512C344.301 510.448 339.983 511 336 511L316 511L243 511C199.044 511 154.941 512.062 111 510.985C74.0272 510.08 37.0044 507 0 507z"/>
<path style="fill:#c2a9a8; stroke:none;" d="M15 507C19.7238 508.982 25.9098 508 31 508C26.2762 506.018 20.0902 507 15 507z"/>
<path style="fill:#be9d9b; stroke:none;" d="M31 507C38.5208 510.156 49.8741 507.816 58 508.015C77.3526 508.489 96.5792 510 116 510L116 507L31 507z"/>
<path style="fill:#a77e80; stroke:none;" d="M133 507C138.216 509.189 145.381 508 151 508L187 508C181.784 505.811 174.619 507 169 507L133 507z"/>
<path style="fill:#c2a9a8; stroke:none;" d="M48 508C52.7238 509.982 58.9098 509 64 509C59.2762 507.018 53.0902 508 48 508z"/>
<path style="fill:#c7b6b5; stroke:none;" d="M72 509C76.7238 510.982 82.9098 510 88 510C83.2762 508.018 77.0902 509 72 509z"/>
<path style="fill:#ccc2c3; stroke:none;" d="M105 510C108.699 511.552 113.017 511 117 511L140 511L221 511L503 511C499.301 509.448 494.983 510 491 510L468 510L387 510L105 510z"/>
</svg>
